<svg xmlns="http://www.w3.org/2000/svg" viewBox="0 0 3600 707" width="3600" height="707">
  <!-- Logo8 mark scaled to 707px canvas (scale ≈ 0.69) -->
  <g fill="#F7F7F5">
    <!-- 3 left input channels -->
    <rect x="55" y="77" width="323" height="83" rx="11" ry="11"/>
    <rect x="55" y="312" width="323" height="83" rx="11" ry="11"/>
    <rect x="55" y="547" width="323" height="83" rx="11" ry="11"/>

    <!-- 2 right output channels -->
    <rect x="337" y="199" width="314" height="83" rx="11" ry="11"/>
    <rect x="337" y="395" width="224" height="83" rx="11" ry="11"/>

    <!-- spine -->
    <rect x="295" y="77" width="83" height="553" rx="11" ry="11"/>
  </g>

  <!-- accent: terminal cap -->
  <rect x="569" y="395" width="83" height="83" rx="11" ry="11" fill="#4F6F8F"/>

  <!-- Wordmark (path-based, no font dependency) -->
  <g fill="#F7F7F5">
    <path d="M991.1 213.4V264.1H930.2V530.0H876.6V264.1H824.9V213.4H876.6V177.1Q876.6 147.7 887.9 127.9Q899.2 108.0 917.6 98.1Q936.0 88.2 957.7 88.2Q973.8 88.2 985.4 91.2Q997.0 94.2 1002.6 96.7L990.2 147.1Q986.2 146.0 980.4 144.3Q974.6 142.6 966.3 142.6Q947.0 142.6 938.6 153.6Q930.2 164.7 930.2 185.6V213.4Z"/>
    <path d="M1094.0 108.0V530.0H1040.4V108.0Z"/>
    <path d="M1275.5 536.5Q1237.2 536.5 1208.7 516.1Q1180.0 495.7 1164.2 459.1Q1148.3 422.4 1148.3 373.4Q1148.3 324.1 1164.2 287.2Q1180.0 250.2 1208.7 229.8Q1237.2 209.4 1275.5 209.4Q1314.0 209.4 1342.7 229.8Q1371.4 250.2 1387.2 287.2Q1403.0 324.1 1403.0 373.4Q1403.0 422.4 1387.2 459.1Q1371.4 495.7 1342.7 516.1Q1314.0 536.5 1275.5 536.5ZM1275.5 483.8Q1300.4 483.8 1316.6 468.7Q1332.9 453.5 1340.8 428.5Q1348.7 403.4 1348.7 373.4Q1348.7 343.1 1340.8 317.7Q1332.9 292.4 1316.6 277.2Q1300.4 262.1 1275.5 262.1Q1250.9 262.1 1234.8 277.2Q1218.7 292.4 1210.8 317.7Q1202.9 343.1 1202.9 373.4Q1202.9 403.4 1210.8 428.5Q1218.7 453.5 1234.8 468.7Q1250.9 483.8 1275.5 483.8Z"/>
    <path d="M1517.1 530.0 1435.1 213.4H1491.7L1521.7 344.5Q1527.3 370.0 1533.8 400.4Q1540.2 430.9 1546.6 468.0Q1552.9 432.3 1559.3 401.7Q1565.6 371.1 1571.7 344.5L1601.7 213.4H1655.3L1685.0 344.5Q1690.6 370.3 1697.0 400.7Q1703.4 431.2 1709.7 467.4Q1715.8 431.4 1722.1 401.1Q1728.4 370.8 1734.3 344.5L1764.3 213.4H1821.3L1739.2 530.0H1685.3L1651.6 393.8Q1645.6 368.9 1639.8 341.0Q1633.9 313.1 1628.2 284.5Q1622.4 313.1 1616.5 341.2Q1610.7 369.4 1604.6 393.8L1571.0 530.0Z"/>
    <path d="M1866.1 530.0V213.4H1917.1L1918.3 272.6Q1928.8 239.7 1949.7 223.9Q1970.7 208.0 1995.1 208.0Q2021.7 208.0 2039.3 225.6Q2056.8 243.1 2064.8 274.6Q2075.1 242.5 2098.6 225.3Q2122.2 208.0 2151.2 208.0Q2175.3 208.0 2194.8 220.2Q2214.3 232.4 2225.9 256.4Q2237.4 280.5 2237.4 316.5V530.0H2183.8V322.7Q2183.8 291.0 2168.6 276.8Q2153.3 262.7 2132.6 262.7Q2107.3 262.7 2092.7 280.8Q2078.3 298.9 2078.3 327.2V530.0H2025.3V318.7Q2025.3 293.2 2011.3 277.9Q1997.3 262.7 1975.6 262.7Q1953.2 262.7 1936.5 280.6Q1919.8 298.6 1919.8 333.2V530.0Z"/>
    <path d="M2380.7 537.1Q2354.7 537.1 2333.8 525.9Q2313.0 514.7 2300.8 493.2Q2288.6 471.7 2288.6 440.5Q2288.6 413.6 2297.6 396.2Q2306.6 378.8 2321.8 368.7Q2336.8 358.7 2355.5 353.6Q2374.1 348.5 2393.4 345.9Q2429.5 341.1 2445.8 337.6Q2462.2 334.0 2462.2 317.3V315.6Q2462.2 289.3 2448.8 274.7Q2435.6 260.1 2410.0 260.1Q2383.2 260.1 2367.8 273.7Q2352.4 287.3 2346.8 303.4L2296.4 288.1Q2305.7 259.8 2323.0 242.5Q2340.3 225.3 2362.6 217.3Q2384.9 209.4 2409.2 209.4Q2425.6 209.4 2444.1 213.9Q2462.6 218.5 2479.0 230.2Q2495.3 242.0 2505.6 263.8Q2515.8 285.6 2515.8 319.9V530.0H2463.9V486.7H2461.1Q2453.1 505.4 2433.5 521.2Q2413.9 537.1 2380.7 537.1ZM2392.7 487.0Q2414.4 487.0 2430.0 476.9Q2445.6 466.8 2454.0 450.7Q2462.4 434.6 2462.4 415.9V375.4Q2458.5 379.9 2445.7 383.2Q2432.9 386.4 2418.8 388.7Q2404.6 390.9 2396.3 392.1Q2373.7 395.8 2357.4 406.4Q2341.2 417.0 2341.2 441.4Q2341.2 464.0 2355.8 475.5Q2370.2 487.0 2392.7 487.0Z"/>
    <path d="M2699.3 213.4V264.1H2644.9V444.5Q2644.9 463.4 2651.9 472.4Q2658.9 481.3 2674.7 481.3Q2679.1 481.3 2685.8 480.2Q2692.4 479.0 2697.4 477.9L2706.9 527.7Q2698.3 531.1 2688.5 532.7Q2678.6 534.2 2669.3 534.2Q2632.3 534.2 2611.8 512.0Q2591.3 489.8 2591.3 449.6V264.1H2551.6V213.4H2591.3V138.0H2644.9V213.4Z"/>
    <path d="M2747.5 530.0V213.4H2799.4V264.4H2802.4Q2809.7 238.6 2828.6 223.7Q2847.5 208.8 2871.4 208.8Q2876.5 208.8 2883.2 209.4Q2889.9 210.0 2894.0 210.5V270.0Q2891.1 269.2 2882.9 267.9Q2874.6 266.6 2866.0 266.6Q2838.0 266.6 2819.6 286.6Q2801.2 306.6 2801.2 337.7V530.0Z"/>
    <path d="M2935.5 530.0V213.4H2989.1V530.0ZM2962.5 165.0Q2948.6 165.0 2938.7 154.2Q2928.9 143.4 2928.9 128.1Q2928.9 112.6 2938.7 101.8Q2948.6 91.0 2962.5 91.0Q2976.4 91.0 2986.4 101.8Q2996.4 112.6 2996.4 128.1Q2996.4 143.4 2986.4 154.2Q2976.4 165.0 2962.5 165.0Z"/>

    <!-- Custom "x" in accent -->
    <g fill="#4F6F8F">
      <polygon points="3040,115 3107,115 3352,635 3285,635"/>
      <polygon points="3285,115 3352,115 3107,530 3040,530"/>
    </g>
  </g>
</svg>
